<svg width="18" height="18" viewBox="0 0 18 18" fill="none" xmlns="http://www.w3.org/2000/svg">
<g clip-path="url(#clip0)">
<path d="M17.214 1.17163C16.4017 0.73426 15.4957 1.57775 14.9646 2.0776C13.7463 3.26473 12.7154 4.63931 11.5594 5.88893C10.2786 7.26351 9.09145 8.63809 7.77935 9.98148C7.02958 10.7312 6.21733 11.5435 5.71748 12.4807C4.59282 11.3872 3.62437 10.2001 2.37475 9.23171C1.46878 8.54442 -0.03076 8.04457 0.000480451 9.70031C0.0629613 11.856 1.96863 14.1677 3.37445 15.636C3.96802 16.2608 4.74903 16.9169 5.655 16.9481C6.74841 17.0106 7.87307 15.6985 8.52912 14.9799C9.68507 13.7303 10.6223 12.3245 11.6844 11.0437C13.059 9.35667 14.4648 7.70088 15.8081 5.98265C16.6516 4.92048 19.3071 2.29623 17.214 1.17163ZM1.37501 9.57535C1.34377 9.57535 1.31253 9.57535 1.25005 9.60654C1.12509 9.57535 1.03136 9.54406 0.906402 9.48158C1.00012 9.4191 1.15633 9.45034 1.37501 9.57535Z" fill="black"/>
</g>
<defs>
<clipPath id="clip0">
<rect width="18" height="18" fill="white"/>
</clipPath>
</defs>
</svg>
